<?xml version="1.0" encoding="UTF-8"?>
<?xml-stylesheet href="https://cdnjs.cloudflare.com/ajax/libs/font-awesome/6.6.0/css/all.min.css" type="text/css"?>
<svg aria-roledescription="er" role="graphics-document document" viewBox="0 0 358.3999938964844 758" style="max-width: 100%;" xmlns="http://www.w3.org/2000/svg" width="100%" id="graph-div" height="100%" xmlns:xlink="http://www.w3.org/1999/xlink"><style>#graph-div{font-family:"trebuchet ms",verdana,arial,sans-serif;font-size:16px;fill:#ccc;}#graph-div .error-icon{fill:#a44141;}#graph-div .error-text{fill:#ddd;stroke:#ddd;}#graph-div .edge-thickness-normal{stroke-width:1px;}#graph-div .edge-thickness-thick{stroke-width:3.5px;}#graph-div .edge-pattern-solid{stroke-dasharray:0;}#graph-div .edge-thickness-invisible{stroke-width:0;fill:none;}#graph-div .edge-pattern-dashed{stroke-dasharray:3;}#graph-div .edge-pattern-dotted{stroke-dasharray:2;}#graph-div .marker{fill:lightgrey;stroke:lightgrey;}#graph-div .marker.cross{stroke:lightgrey;}#graph-div svg{font-family:"trebuchet ms",verdana,arial,sans-serif;font-size:16px;}#graph-div p{margin:0;}#graph-div .entityBox{fill:#1f2020;stroke:#ccc;}#graph-div .attributeBoxOdd{fill:hsl(0, 0%, 32%);stroke:#ccc;}#graph-div .attributeBoxEven{fill:hsl(0, 0%, 22%);stroke:#ccc;}#graph-div .relationshipLabelBox{fill:hsl(20, 1.5873015873%, 12.3529411765%);opacity:0.7;background-color:hsl(20, 1.5873015873%, 12.3529411765%);}#graph-div .relationshipLabelBox rect{opacity:0.5;}#graph-div .relationshipLine{stroke:lightgrey;}#graph-div .entityTitleText{text-anchor:middle;font-size:18px;fill:#ccc;}#graph-div #MD_PARENT_START{fill:#f5f5f5!important;stroke:lightgrey!important;stroke-width:1;}#graph-div #MD_PARENT_END{fill:#f5f5f5!important;stroke:lightgrey!important;stroke-width:1;}#graph-div :root{--mermaid-font-family:"trebuchet ms",verdana,arial,sans-serif;}</style><g></g><defs><marker orient="auto" markerHeight="240" markerWidth="190" refY="7" refX="0" id="MD_PARENT_START"><path d="M 18,7 L9,13 L1,7 L9,1 Z"></path></marker></defs><defs><marker orient="auto" markerHeight="28" markerWidth="20" refY="7" refX="19" id="MD_PARENT_END"><path d="M 18,7 L9,13 L1,7 L9,1 Z"></path></marker></defs><defs><marker orient="auto" markerHeight="18" markerWidth="18" refY="9" refX="0" id="ONLY_ONE_START"><path d="M9,0 L9,18 M15,0 L15,18" fill="none" stroke="gray"></path></marker></defs><defs><marker orient="auto" markerHeight="18" markerWidth="18" refY="9" refX="18" id="ONLY_ONE_END"><path d="M3,0 L3,18 M9,0 L9,18" fill="none" stroke="gray"></path></marker></defs><defs><marker orient="auto" markerHeight="18" markerWidth="30" refY="9" refX="0" id="ZERO_OR_ONE_START"><circle r="6" cy="9" cx="21" fill="white" stroke="gray"></circle><path d="M9,0 L9,18" fill="none" stroke="gray"></path></marker></defs><defs><marker orient="auto" markerHeight="18" markerWidth="30" refY="9" refX="30" id="ZERO_OR_ONE_END"><circle r="6" cy="9" cx="9" fill="white" stroke="gray"></circle><path d="M21,0 L21,18" fill="none" stroke="gray"></path></marker></defs><defs><marker orient="auto" markerHeight="36" markerWidth="45" refY="18" refX="18" id="ONE_OR_MORE_START"><path d="M0,18 Q 18,0 36,18 Q 18,36 0,18 M42,9 L42,27" fill="none" stroke="gray"></path></marker></defs><defs><marker orient="auto" markerHeight="36" markerWidth="45" refY="18" refX="27" id="ONE_OR_MORE_END"><path d="M3,9 L3,27 M9,18 Q27,0 45,18 Q27,36 9,18" fill="none" stroke="gray"></path></marker></defs><defs><marker orient="auto" markerHeight="36" markerWidth="57" refY="18" refX="18" id="ZERO_OR_MORE_START"><circle r="6" cy="18" cx="48" fill="white" stroke="gray"></circle><path d="M0,18 Q18,0 36,18 Q18,36 0,18" fill="none" stroke="gray"></path></marker></defs><defs><marker orient="auto" markerHeight="36" markerWidth="57" refY="18" refX="39" id="ZERO_OR_MORE_END"><circle r="6" cy="18" cx="9" fill="white" stroke="gray"></circle><path d="M21,18 Q39,0 57,18 Q39,36 21,18" fill="none" stroke="gray"></path></marker></defs><path marker-start="url(#ONE_OR_MORE_START)" marker-end="url(#ONLY_ONE_END)" style="stroke: gray; fill: none;" d="M279.2,136L279.2,144.333C279.2,152.667,279.2,169.333,279.2,186C279.2,202.667,279.2,219.333,279.2,227.667L279.2,236" class="er relationshipLine"></path><path marker-start="url(#ONLY_ONE_START)" marker-end="url(#ONE_OR_MORE_END)" style="stroke: gray; fill: none;" d="M70,510.5L70,524.583C70,538.667,70,566.833,79.033,589.25C88.066,611.667,106.131,628.333,115.164,636.667L124.197,645" class="er relationshipLine"></path><path marker-start="url(#ONLY_ONE_START)" marker-end="url(#ONE_OR_MORE_END)" style="stroke: gray; fill: none;" d="M279.2,545L279.2,553.333C279.2,561.667,279.2,578.333,270.167,595C261.134,611.667,243.069,628.333,234.036,636.667L225.003,645" class="er relationshipLine"></path><path marker-start="url(#ONLY_ONE_START)" marker-end="url(#ONE_OR_MORE_END)" style="stroke: gray; fill: none;" d="M279.2,306L279.2,314.333C279.2,322.667,279.2,339.333,279.2,356C279.2,372.667,279.2,389.333,279.2,397.667L279.2,406" class="er relationshipLine"></path><g transform="translate(226.51666641235352,20 )" id="entity-player-45342313-5131-5b44-bf94-77a9fb4b9dd5"><rect height="116" width="105.36666584014893" y="0" x="0" class="er entityBox"></rect><text transform="translate(52.68333292007446,12)" style="dominant-baseline: middle; text-anchor: middle; font-size: 12px;" y="0" x="0" id="text-entity-player-45342313-5131-5b44-bf94-77a9fb4b9dd5" class="er entityLabel">player</text><rect height="23" width="34.933332443237305" y="24" x="0" class="er attributeBoxOdd"></rect><text transform="translate(5,35.5)" style="dominant-baseline: middle; font-size: 10.2px;" y="0" x="0" id="text-entity-player-45342313-5131-5b44-bf94-77a9fb4b9dd5-attr-1-type" class="er entityLabel">int</text><rect height="23" width="46.266666412353516" y="24" x="34.933332443237305" class="er attributeBoxOdd"></rect><text transform="translate(39.933332443237305,35.5)" style="dominant-baseline: middle; font-size: 10.2px;" y="0" x="0" id="text-entity-player-45342313-5131-5b44-bf94-77a9fb4b9dd5-attr-1-name" class="er entityLabel">id</text><rect height="23" width="24.166666984558105" y="24" x="81.19999885559082" class="er attributeBoxOdd"></rect><text transform="translate(86.19999885559082,35.5)" style="dominant-baseline: middle; font-size: 10.2px;" y="0" x="0" id="text-entity-player-45342313-5131-5b44-bf94-77a9fb4b9dd5-attr-1-key" class="er entityLabel">PK</text><rect height="23" width="34.933332443237305" y="47" x="0" class="er attributeBoxEven"></rect><text transform="translate(5,58.5)" style="dominant-baseline: middle; font-size: 10.2px;" y="0" x="0" id="text-entity-player-45342313-5131-5b44-bf94-77a9fb4b9dd5-attr-2-type" class="er entityLabel">string</text><rect height="23" width="46.266666412353516" y="47" x="34.933332443237305" class="er attributeBoxEven"></rect><text transform="translate(39.933332443237305,58.5)" style="dominant-baseline: middle; font-size: 10.2px;" y="0" x="0" id="text-entity-player-45342313-5131-5b44-bf94-77a9fb4b9dd5-attr-2-name" class="er entityLabel">name</text><rect height="23" width="24.166666984558105" y="47" x="81.19999885559082" class="er attributeBoxEven"></rect><text transform="translate(86.19999885559082,58.5)" style="dominant-baseline: middle; font-size: 10.2px;" y="0" x="0" id="text-entity-player-45342313-5131-5b44-bf94-77a9fb4b9dd5-attr-2-key" class="er entityLabel"></text><rect height="23" width="34.933332443237305" y="70" x="0" class="er attributeBoxOdd"></rect><text transform="translate(5,81.5)" style="dominant-baseline: middle; font-size: 10.2px;" y="0" x="0" id="text-entity-player-45342313-5131-5b44-bf94-77a9fb4b9dd5-attr-3-type" class="er entityLabel">int</text><rect height="23" width="46.266666412353516" y="70" x="34.933332443237305" class="er attributeBoxOdd"></rect><text transform="translate(39.933332443237305,81.5)" style="dominant-baseline: middle; font-size: 10.2px;" y="0" x="0" id="text-entity-player-45342313-5131-5b44-bf94-77a9fb4b9dd5-attr-3-name" class="er entityLabel">number</text><rect height="23" width="24.166666984558105" y="70" x="81.19999885559082" class="er attributeBoxOdd"></rect><text transform="translate(86.19999885559082,81.5)" style="dominant-baseline: middle; font-size: 10.2px;" y="0" x="0" id="text-entity-player-45342313-5131-5b44-bf94-77a9fb4b9dd5-attr-3-key" class="er entityLabel">UK</text><rect height="23" width="34.933332443237305" y="93" x="0" class="er attributeBoxEven"></rect><text transform="translate(5,104.5)" style="dominant-baseline: middle; font-size: 10.2px;" y="0" x="0" id="text-entity-player-45342313-5131-5b44-bf94-77a9fb4b9dd5-attr-4-type" class="er entityLabel">int</text><rect height="23" width="46.266666412353516" y="93" x="34.933332443237305" class="er attributeBoxEven"></rect><text transform="translate(39.933332443237305,104.5)" style="dominant-baseline: middle; font-size: 10.2px;" y="0" x="0" id="text-entity-player-45342313-5131-5b44-bf94-77a9fb4b9dd5-attr-4-name" class="er entityLabel">team_id</text><rect height="23" width="24.166666984558105" y="93" x="81.19999885559082" class="er attributeBoxEven"></rect><text transform="translate(86.19999885559082,104.5)" style="dominant-baseline: middle; font-size: 10.2px;" y="0" x="0" id="text-entity-player-45342313-5131-5b44-bf94-77a9fb4b9dd5-attr-4-key" class="er entityLabel">FK</text></g><g transform="translate(229.20000076293945,236 )" id="entity-team-8e303dbd-44de-5d18-9708-5d7957dc1823"><rect height="70" width="100" y="0" x="0" class="er entityBox"></rect><text transform="translate(50,12)" style="dominant-baseline: middle; text-anchor: middle; font-size: 12px;" y="0" x="0" id="text-entity-team-8e303dbd-44de-5d18-9708-5d7957dc1823" class="er entityLabel">team</text><rect height="23" width="36.9222215016683" y="24" x="0" class="er attributeBoxOdd"></rect><text transform="translate(5,35.5)" style="dominant-baseline: middle; font-size: 10.2px;" y="0" x="0" id="text-entity-team-8e303dbd-44de-5d18-9708-5d7957dc1823-attr-1-type" class="er entityLabel">int</text><rect height="23" width="37.48888905843099" y="24" x="36.9222215016683" class="er attributeBoxOdd"></rect><text transform="translate(41.9222215016683,35.5)" style="dominant-baseline: middle; font-size: 10.2px;" y="0" x="0" id="text-entity-team-8e303dbd-44de-5d18-9708-5d7957dc1823-attr-1-name" class="er entityLabel">id</text><rect height="23" width="25.588889439900715" y="24" x="74.41111056009929" class="er attributeBoxOdd"></rect><text transform="translate(79.41111056009929,35.5)" style="dominant-baseline: middle; font-size: 10.2px;" y="0" x="0" id="text-entity-team-8e303dbd-44de-5d18-9708-5d7957dc1823-attr-1-key" class="er entityLabel">PK</text><rect height="23" width="36.9222215016683" y="47" x="0" class="er attributeBoxEven"></rect><text transform="translate(5,58.5)" style="dominant-baseline: middle; font-size: 10.2px;" y="0" x="0" id="text-entity-team-8e303dbd-44de-5d18-9708-5d7957dc1823-attr-2-type" class="er entityLabel">string</text><rect height="23" width="37.48888905843099" y="47" x="36.9222215016683" class="er attributeBoxEven"></rect><text transform="translate(41.9222215016683,58.5)" style="dominant-baseline: middle; font-size: 10.2px;" y="0" x="0" id="text-entity-team-8e303dbd-44de-5d18-9708-5d7957dc1823-attr-2-name" class="er entityLabel">name</text><rect height="23" width="25.588889439900715" y="47" x="74.41111056009929" class="er attributeBoxEven"></rect><text transform="translate(79.41111056009929,58.5)" style="dominant-baseline: middle; font-size: 10.2px;" y="0" x="0" id="text-entity-team-8e303dbd-44de-5d18-9708-5d7957dc1823-attr-2-key" class="er entityLabel"></text></g><g transform="translate(20,440.5 )" id="entity-referee-fa25e790-175f-5cfe-93f4-da7bca2af723"><rect height="70" width="100" y="0" x="0" class="er entityBox"></rect><text transform="translate(50,12)" style="dominant-baseline: middle; text-anchor: middle; font-size: 12px;" y="0" x="0" id="text-entity-referee-fa25e790-175f-5cfe-93f4-da7bca2af723" class="er entityLabel">referee</text><rect height="23" width="36.9222215016683" y="24" x="0" class="er attributeBoxOdd"></rect><text transform="translate(5,35.5)" style="dominant-baseline: middle; font-size: 10.2px;" y="0" x="0" id="text-entity-referee-fa25e790-175f-5cfe-93f4-da7bca2af723-attr-1-type" class="er entityLabel">int</text><rect height="23" width="37.48888905843099" y="24" x="36.9222215016683" class="er attributeBoxOdd"></rect><text transform="translate(41.9222215016683,35.5)" style="dominant-baseline: middle; font-size: 10.2px;" y="0" x="0" id="text-entity-referee-fa25e790-175f-5cfe-93f4-da7bca2af723-attr-1-name" class="er entityLabel">id</text><rect height="23" width="25.588889439900715" y="24" x="74.41111056009929" class="er attributeBoxOdd"></rect><text transform="translate(79.41111056009929,35.5)" style="dominant-baseline: middle; font-size: 10.2px;" y="0" x="0" id="text-entity-referee-fa25e790-175f-5cfe-93f4-da7bca2af723-attr-1-key" class="er entityLabel">PK</text><rect height="23" width="36.9222215016683" y="47" x="0" class="er attributeBoxEven"></rect><text transform="translate(5,58.5)" style="dominant-baseline: middle; font-size: 10.2px;" y="0" x="0" id="text-entity-referee-fa25e790-175f-5cfe-93f4-da7bca2af723-attr-2-type" class="er entityLabel">string</text><rect height="23" width="37.48888905843099" y="47" x="36.9222215016683" class="er attributeBoxEven"></rect><text transform="translate(41.9222215016683,58.5)" style="dominant-baseline: middle; font-size: 10.2px;" y="0" x="0" id="text-entity-referee-fa25e790-175f-5cfe-93f4-da7bca2af723-attr-2-name" class="er entityLabel">name</text><rect height="23" width="25.588889439900715" y="47" x="74.41111056009929" class="er attributeBoxEven"></rect><text transform="translate(79.41111056009929,58.5)" style="dominant-baseline: middle; font-size: 10.2px;" y="0" x="0" id="text-entity-referee-fa25e790-175f-5cfe-93f4-da7bca2af723-attr-2-key" class="er entityLabel"></text></g><g transform="translate(116.60000038146973,645 )" id="entity-refereetogame-1c223101-d855-58c1-8f14-8c28b810208c"><rect height="93" width="116" y="0" x="0" class="er entityBox"></rect><text transform="translate(58,12)" style="dominant-baseline: middle; text-anchor: middle; font-size: 12px;" y="0" x="0" id="text-entity-refereetogame-1c223101-d855-58c1-8f14-8c28b810208c" class="er entityLabel">referee-to-game</text><rect height="23" width="26.011110305786133" y="24" x="0" class="er attributeBoxOdd"></rect><text transform="translate(5,35.5)" style="dominant-baseline: middle; font-size: 10.2px;" y="0" x="0" id="text-entity-refereetogame-1c223101-d855-58c1-8f14-8c28b810208c-attr-1-type" class="er entityLabel">int</text><rect height="23" width="61.14444541931152" y="24" x="26.011110305786133" class="er attributeBoxOdd"></rect><text transform="translate(31.011110305786133,35.5)" style="dominant-baseline: middle; font-size: 10.2px;" y="0" x="0" id="text-entity-refereetogame-1c223101-d855-58c1-8f14-8c28b810208c-attr-1-name" class="er entityLabel">id</text><rect height="23" width="28.844444274902344" y="24" x="87.15555572509766" class="er attributeBoxOdd"></rect><text transform="translate(92.15555572509766,35.5)" style="dominant-baseline: middle; font-size: 10.2px;" y="0" x="0" id="text-entity-refereetogame-1c223101-d855-58c1-8f14-8c28b810208c-attr-1-key" class="er entityLabel">PK</text><rect height="23" width="26.011110305786133" y="47" x="0" class="er attributeBoxEven"></rect><text transform="translate(5,58.5)" style="dominant-baseline: middle; font-size: 10.2px;" y="0" x="0" id="text-entity-refereetogame-1c223101-d855-58c1-8f14-8c28b810208c-attr-2-type" class="er entityLabel">int</text><rect height="23" width="61.14444541931152" y="47" x="26.011110305786133" class="er attributeBoxEven"></rect><text transform="translate(31.011110305786133,58.5)" style="dominant-baseline: middle; font-size: 10.2px;" y="0" x="0" id="text-entity-refereetogame-1c223101-d855-58c1-8f14-8c28b810208c-attr-2-name" class="er entityLabel">referee_id</text><rect height="23" width="28.844444274902344" y="47" x="87.15555572509766" class="er attributeBoxEven"></rect><text transform="translate(92.15555572509766,58.5)" style="dominant-baseline: middle; font-size: 10.2px;" y="0" x="0" id="text-entity-refereetogame-1c223101-d855-58c1-8f14-8c28b810208c-attr-2-key" class="er entityLabel">FK</text><rect height="23" width="26.011110305786133" y="70" x="0" class="er attributeBoxOdd"></rect><text transform="translate(5,81.5)" style="dominant-baseline: middle; font-size: 10.2px;" y="0" x="0" id="text-entity-refereetogame-1c223101-d855-58c1-8f14-8c28b810208c-attr-3-type" class="er entityLabel">int</text><rect height="23" width="61.14444541931152" y="70" x="26.011110305786133" class="er attributeBoxOdd"></rect><text transform="translate(31.011110305786133,81.5)" style="dominant-baseline: middle; font-size: 10.2px;" y="0" x="0" id="text-entity-refereetogame-1c223101-d855-58c1-8f14-8c28b810208c-attr-3-name" class="er entityLabel">game_id</text><rect height="23" width="28.844444274902344" y="70" x="87.15555572509766" class="er attributeBoxOdd"></rect><text transform="translate(92.15555572509766,81.5)" style="dominant-baseline: middle; font-size: 10.2px;" y="0" x="0" id="text-entity-refereetogame-1c223101-d855-58c1-8f14-8c28b810208c-attr-3-key" class="er entityLabel">FK</text></g><g transform="translate(220,406 )" id="entity-game-8583509a-3fdb-53ed-9d51-913d2ee0b32a"><rect height="139" width="118.40000057220459" y="0" x="0" class="er entityBox"></rect><text transform="translate(59.200000286102295,12)" style="dominant-baseline: middle; text-anchor: middle; font-size: 12px;" y="0" x="0" id="text-entity-game-8583509a-3fdb-53ed-9d51-913d2ee0b32a" class="er entityLabel">game</text><rect height="23" width="29.83333396911621" y="24" x="0" class="er attributeBoxOdd"></rect><text transform="translate(5,35.5)" style="dominant-baseline: middle; font-size: 10.2px;" y="0" x="0" id="text-entity-game-8583509a-3fdb-53ed-9d51-913d2ee0b32a-attr-1-type" class="er entityLabel">int</text><rect height="23" width="65.53333282470703" y="24" x="29.83333396911621" class="er attributeBoxOdd"></rect><text transform="translate(34.83333396911621,35.5)" style="dominant-baseline: middle; font-size: 10.2px;" y="0" x="0" id="text-entity-game-8583509a-3fdb-53ed-9d51-913d2ee0b32a-attr-1-name" class="er entityLabel">home</text><rect height="23" width="23.033333778381348" y="24" x="95.36666679382324" class="er attributeBoxOdd"></rect><text transform="translate(100.36666679382324,35.5)" style="dominant-baseline: middle; font-size: 10.2px;" y="0" x="0" id="text-entity-game-8583509a-3fdb-53ed-9d51-913d2ee0b32a-attr-1-key" class="er entityLabel">FK</text><rect height="23" width="29.83333396911621" y="47" x="0" class="er attributeBoxEven"></rect><text transform="translate(5,58.5)" style="dominant-baseline: middle; font-size: 10.2px;" y="0" x="0" id="text-entity-game-8583509a-3fdb-53ed-9d51-913d2ee0b32a-attr-2-type" class="er entityLabel">int</text><rect height="23" width="65.53333282470703" y="47" x="29.83333396911621" class="er attributeBoxEven"></rect><text transform="translate(34.83333396911621,58.5)" style="dominant-baseline: middle; font-size: 10.2px;" y="0" x="0" id="text-entity-game-8583509a-3fdb-53ed-9d51-913d2ee0b32a-attr-2-name" class="er entityLabel">away</text><rect height="23" width="23.033333778381348" y="47" x="95.36666679382324" class="er attributeBoxEven"></rect><text transform="translate(100.36666679382324,58.5)" style="dominant-baseline: middle; font-size: 10.2px;" y="0" x="0" id="text-entity-game-8583509a-3fdb-53ed-9d51-913d2ee0b32a-attr-2-key" class="er entityLabel">FK</text><rect height="23" width="29.83333396911621" y="70" x="0" class="er attributeBoxOdd"></rect><text transform="translate(5,81.5)" style="dominant-baseline: middle; font-size: 10.2px;" y="0" x="0" id="text-entity-game-8583509a-3fdb-53ed-9d51-913d2ee0b32a-attr-3-type" class="er entityLabel">date</text><rect height="23" width="65.53333282470703" y="70" x="29.83333396911621" class="er attributeBoxOdd"></rect><text transform="translate(34.83333396911621,81.5)" style="dominant-baseline: middle; font-size: 10.2px;" y="0" x="0" id="text-entity-game-8583509a-3fdb-53ed-9d51-913d2ee0b32a-attr-3-name" class="er entityLabel">date</text><rect height="23" width="23.033333778381348" y="70" x="95.36666679382324" class="er attributeBoxOdd"></rect><text transform="translate(100.36666679382324,81.5)" style="dominant-baseline: middle; font-size: 10.2px;" y="0" x="0" id="text-entity-game-8583509a-3fdb-53ed-9d51-913d2ee0b32a-attr-3-key" class="er entityLabel"></text><rect height="23" width="29.83333396911621" y="93" x="0" class="er attributeBoxEven"></rect><text transform="translate(5,104.5)" style="dominant-baseline: middle; font-size: 10.2px;" y="0" x="0" id="text-entity-game-8583509a-3fdb-53ed-9d51-913d2ee0b32a-attr-4-type" class="er entityLabel">int</text><rect height="23" width="65.53333282470703" y="93" x="29.83333396911621" class="er attributeBoxEven"></rect><text transform="translate(34.83333396911621,104.5)" style="dominant-baseline: middle; font-size: 10.2px;" y="0" x="0" id="text-entity-game-8583509a-3fdb-53ed-9d51-913d2ee0b32a-attr-4-name" class="er entityLabel">goals_home</text><rect height="23" width="23.033333778381348" y="93" x="95.36666679382324" class="er attributeBoxEven"></rect><text transform="translate(100.36666679382324,104.5)" style="dominant-baseline: middle; font-size: 10.2px;" y="0" x="0" id="text-entity-game-8583509a-3fdb-53ed-9d51-913d2ee0b32a-attr-4-key" class="er entityLabel"></text><rect height="23" width="29.83333396911621" y="116" x="0" class="er attributeBoxOdd"></rect><text transform="translate(5,127.5)" style="dominant-baseline: middle; font-size: 10.2px;" y="0" x="0" id="text-entity-game-8583509a-3fdb-53ed-9d51-913d2ee0b32a-attr-5-type" class="er entityLabel">int</text><rect height="23" width="65.53333282470703" y="116" x="29.83333396911621" class="er attributeBoxOdd"></rect><text transform="translate(34.83333396911621,127.5)" style="dominant-baseline: middle; font-size: 10.2px;" y="0" x="0" id="text-entity-game-8583509a-3fdb-53ed-9d51-913d2ee0b32a-attr-5-name" class="er entityLabel">goals_away</text><rect height="23" width="23.033333778381348" y="116" x="95.36666679382324" class="er attributeBoxOdd"></rect><text transform="translate(100.36666679382324,127.5)" style="dominant-baseline: middle; font-size: 10.2px;" y="0" x="0" id="text-entity-game-8583509a-3fdb-53ed-9d51-913d2ee0b32a-attr-5-key" class="er entityLabel"></text></g><rect height="14" width="55.33333206176758" y="179" x="251.53334617614746" class="er relationshipLabelBox"></rect><text style="text-anchor: middle; dominant-baseline: middle; font-size: 12px;" y="186" x="279.20001220703125" id="rel7" class="er relationshipLabel">belongs to</text><rect height="14" width="57.33333206176758" y="578.808349609375" x="49.06441307067871" class="er relationshipLabelBox"></rect><text style="text-anchor: middle; dominant-baseline: middle; font-size: 12px;" y="585.808349609375" x="77.7310791015625" id="rel8" class="er relationshipLabel">supervises</text><rect height="14" width="19.33333396911621" y="594.9161376953125" x="256.26628589630127" class="er relationshipLabelBox"></rect><text style="text-anchor: middle; dominant-baseline: middle; font-size: 12px;" y="601.9161376953125" x="265.9329528808594" id="rel9" class="er relationshipLabel">has</text><rect height="14" width="28" y="349" x="265.20001220703125" class="er relationshipLabelBox"></rect><text style="text-anchor: middle; dominant-baseline: middle; font-size: 12px;" y="356" x="279.20001220703125" id="rel10" class="er relationshipLabel">plays</text></svg>