<?xml version="1.0" encoding="UTF-8"?>
<?xml-stylesheet href="https://cdnjs.cloudflare.com/ajax/libs/font-awesome/6.6.0/css/all.min.css" type="text/css"?>
<svg aria-roledescription="er" role="graphics-document document" viewBox="0 0 890.4583129882812 349" style="max-width: 100%;" xmlns="http://www.w3.org/2000/svg" width="100%" id="graph-div" height="100%" xmlns:xlink="http://www.w3.org/1999/xlink"><style>#graph-div{font-family:"trebuchet ms",verdana,arial,sans-serif;font-size:16px;fill:#ccc;}#graph-div .error-icon{fill:#a44141;}#graph-div .error-text{fill:#ddd;stroke:#ddd;}#graph-div .edge-thickness-normal{stroke-width:1px;}#graph-div .edge-thickness-thick{stroke-width:3.5px;}#graph-div .edge-pattern-solid{stroke-dasharray:0;}#graph-div .edge-thickness-invisible{stroke-width:0;fill:none;}#graph-div .edge-pattern-dashed{stroke-dasharray:3;}#graph-div .edge-pattern-dotted{stroke-dasharray:2;}#graph-div .marker{fill:lightgrey;stroke:lightgrey;}#graph-div .marker.cross{stroke:lightgrey;}#graph-div svg{font-family:"trebuchet ms",verdana,arial,sans-serif;font-size:16px;}#graph-div p{margin:0;}#graph-div .entityBox{fill:#1f2020;stroke:#ccc;}#graph-div .attributeBoxOdd{fill:hsl(0, 0%, 32%);stroke:#ccc;}#graph-div .attributeBoxEven{fill:hsl(0, 0%, 22%);stroke:#ccc;}#graph-div .relationshipLabelBox{fill:hsl(20, 1.5873015873%, 12.3529411765%);opacity:0.7;background-color:hsl(20, 1.5873015873%, 12.3529411765%);}#graph-div .relationshipLabelBox rect{opacity:0.5;}#graph-div .relationshipLine{stroke:lightgrey;}#graph-div .entityTitleText{text-anchor:middle;font-size:18px;fill:#ccc;}#graph-div #MD_PARENT_START{fill:#f5f5f5!important;stroke:lightgrey!important;stroke-width:1;}#graph-div #MD_PARENT_END{fill:#f5f5f5!important;stroke:lightgrey!important;stroke-width:1;}#graph-div :root{--mermaid-font-family:"trebuchet ms",verdana,arial,sans-serif;}</style><g></g><defs><marker orient="auto" markerHeight="240" markerWidth="190" refY="7" refX="0" id="MD_PARENT_START"><path d="M 18,7 L9,13 L1,7 L9,1 Z"></path></marker></defs><defs><marker orient="auto" markerHeight="28" markerWidth="20" refY="7" refX="19" id="MD_PARENT_END"><path d="M 18,7 L9,13 L1,7 L9,1 Z"></path></marker></defs><defs><marker orient="auto" markerHeight="18" markerWidth="18" refY="9" refX="0" id="ONLY_ONE_START"><path d="M9,0 L9,18 M15,0 L15,18" fill="none" stroke="gray"></path></marker></defs><defs><marker orient="auto" markerHeight="18" markerWidth="18" refY="9" refX="18" id="ONLY_ONE_END"><path d="M3,0 L3,18 M9,0 L9,18" fill="none" stroke="gray"></path></marker></defs><defs><marker orient="auto" markerHeight="18" markerWidth="30" refY="9" refX="0" id="ZERO_OR_ONE_START"><circle r="6" cy="9" cx="21" fill="white" stroke="gray"></circle><path d="M9,0 L9,18" fill="none" stroke="gray"></path></marker></defs><defs><marker orient="auto" markerHeight="18" markerWidth="30" refY="9" refX="30" id="ZERO_OR_ONE_END"><circle r="6" cy="9" cx="9" fill="white" stroke="gray"></circle><path d="M21,0 L21,18" fill="none" stroke="gray"></path></marker></defs><defs><marker orient="auto" markerHeight="36" markerWidth="45" refY="18" refX="18" id="ONE_OR_MORE_START"><path d="M0,18 Q 18,0 36,18 Q 18,36 0,18 M42,9 L42,27" fill="none" stroke="gray"></path></marker></defs><defs><marker orient="auto" markerHeight="36" markerWidth="45" refY="18" refX="27" id="ONE_OR_MORE_END"><path d="M3,9 L3,27 M9,18 Q27,0 45,18 Q27,36 9,18" fill="none" stroke="gray"></path></marker></defs><defs><marker orient="auto" markerHeight="36" markerWidth="57" refY="18" refX="18" id="ZERO_OR_MORE_START"><circle r="6" cy="18" cx="48" fill="white" stroke="gray"></circle><path d="M0,18 Q18,0 36,18 Q18,36 0,18" fill="none" stroke="gray"></path></marker></defs><defs><marker orient="auto" markerHeight="36" markerWidth="57" refY="18" refX="39" id="ZERO_OR_MORE_END"><circle r="6" cy="18" cx="9" fill="white" stroke="gray"></circle><path d="M21,18 Q39,0 57,18 Q39,36 21,18" fill="none" stroke="gray"></path></marker></defs><path marker-start="url(#ONLY_ONE_START)" marker-end="url(#ONE_OR_MORE_END)" style="stroke: gray; fill: none;" d="M80.757,113L79.276,121.333C77.796,129.667,74.836,146.333,73.355,163C71.875,179.667,71.875,196.333,71.875,204.667L71.875,213" class="er relationshipLine"></path><path marker-start="url(#ONLY_ONE_START)" marker-end="url(#ONE_OR_MORE_END)" style="stroke: gray; fill: none;" d="M568.38,113L563.972,121.333C559.564,129.667,550.749,146.333,476.401,170.736C402.053,195.139,262.172,227.278,192.232,243.347L122.292,259.416" class="er relationshipLine"></path><path marker-start="url(#ONLY_ONE_START)" marker-end="url(#ONE_OR_MORE_END)" style="stroke: gray; fill: none;" d="M153.538,113L165.101,121.333C176.665,129.667,199.791,146.333,221.747,164.917C243.703,183.5,264.489,204,274.882,214.25L285.276,224.5" class="er relationshipLine"></path><path marker-start="url(#ONLY_ONE_START)" marker-end="url(#ONE_OR_MORE_END)" style="stroke: gray; fill: none;" d="M373.958,101.5L373.958,111.75C373.958,122,373.958,142.5,370.017,163C366.075,183.5,358.191,204,354.249,214.25L350.307,224.5" class="er relationshipLine"></path><path marker-start="url(#ONLY_ONE_START)" marker-end="url(#ONE_OR_MORE_END)" style="stroke: gray; fill: none;" d="M820.458,101.5L820.458,111.75C820.458,122,820.458,142.5,815.713,163C810.968,183.5,801.477,204,796.731,214.25L791.986,224.5" class="er relationshipLine"></path><path marker-start="url(#ONLY_ONE_START)" marker-end="url(#ONE_OR_MORE_END)" style="stroke: gray; fill: none;" d="M625.73,113L631.6,121.333C637.47,129.667,649.21,146.333,665.473,164.917C681.736,183.5,702.523,204,712.916,214.25L723.309,224.5" class="er relationshipLine"></path><g transform="translate(20,20 )" id="entity-Song-d80e2154-507c-53bb-a634-0c930e739395"><rect height="93" width="138.03333282470703" y="0" x="0" class="er entityBox"></rect><text transform="translate(69.01666641235352,12)" style="dominant-baseline: middle; text-anchor: middle; font-size: 12px;" y="0" x="0" id="text-entity-Song-d80e2154-507c-53bb-a634-0c930e739395" class="er entityLabel">Song</text><rect height="23" width="34.933332443237305" y="24" x="0" class="er attributeBoxOdd"></rect><text transform="translate(5,35.5)" style="dominant-baseline: middle; font-size: 10.2px;" y="0" x="0" id="text-entity-Song-d80e2154-507c-53bb-a634-0c930e739395-attr-1-type" class="er entityLabel">int</text><rect height="23" width="37.766666412353516" y="24" x="34.933332443237305" class="er attributeBoxOdd"></rect><text transform="translate(39.933332443237305,35.5)" style="dominant-baseline: middle; font-size: 10.2px;" y="0" x="0" id="text-entity-Song-d80e2154-507c-53bb-a634-0c930e739395-attr-1-name" class="er entityLabel">id</text><rect height="23" width="23.600000381469727" y="24" x="72.69999885559082" class="er attributeBoxOdd"></rect><text transform="translate(77.69999885559082,35.5)" style="dominant-baseline: middle; font-size: 10.2px;" y="0" x="0" id="text-entity-Song-d80e2154-507c-53bb-a634-0c930e739395-attr-1-key" class="er entityLabel">PK</text><rect height="23" width="41.733333587646484" y="24" x="96.29999923706055" class="er attributeBoxOdd"></rect><text transform="translate(101.29999923706055,35.5)" style="dominant-baseline: middle; font-size: 10.2px;" y="0" x="0" id="text-entity-Song-d80e2154-507c-53bb-a634-0c930e739395-attr-1-comment" class="er entityLabel"></text><rect height="23" width="34.933332443237305" y="47" x="0" class="er attributeBoxEven"></rect><text transform="translate(5,58.5)" style="dominant-baseline: middle; font-size: 10.2px;" y="0" x="0" id="text-entity-Song-d80e2154-507c-53bb-a634-0c930e739395-attr-2-type" class="er entityLabel">string</text><rect height="23" width="37.766666412353516" y="47" x="34.933332443237305" class="er attributeBoxEven"></rect><text transform="translate(39.933332443237305,58.5)" style="dominant-baseline: middle; font-size: 10.2px;" y="0" x="0" id="text-entity-Song-d80e2154-507c-53bb-a634-0c930e739395-attr-2-name" class="er entityLabel">name</text><rect height="23" width="23.600000381469727" y="47" x="72.69999885559082" class="er attributeBoxEven"></rect><text transform="translate(77.69999885559082,58.5)" style="dominant-baseline: middle; font-size: 10.2px;" y="0" x="0" id="text-entity-Song-d80e2154-507c-53bb-a634-0c930e739395-attr-2-key" class="er entityLabel"></text><rect height="23" width="41.733333587646484" y="47" x="96.29999923706055" class="er attributeBoxEven"></rect><text transform="translate(101.29999923706055,58.5)" style="dominant-baseline: middle; font-size: 10.2px;" y="0" x="0" id="text-entity-Song-d80e2154-507c-53bb-a634-0c930e739395-attr-2-comment" class="er entityLabel"></text><rect height="23" width="34.933332443237305" y="70" x="0" class="er attributeBoxOdd"></rect><text transform="translate(5,81.5)" style="dominant-baseline: middle; font-size: 10.2px;" y="0" x="0" id="text-entity-Song-d80e2154-507c-53bb-a634-0c930e739395-attr-3-type" class="er entityLabel">int</text><rect height="23" width="37.766666412353516" y="70" x="34.933332443237305" class="er attributeBoxOdd"></rect><text transform="translate(39.933332443237305,81.5)" style="dominant-baseline: middle; font-size: 10.2px;" y="0" x="0" id="text-entity-Song-d80e2154-507c-53bb-a634-0c930e739395-attr-3-name" class="er entityLabel">length</text><rect height="23" width="23.600000381469727" y="70" x="72.69999885559082" class="er attributeBoxOdd"></rect><text transform="translate(77.69999885559082,81.5)" style="dominant-baseline: middle; font-size: 10.2px;" y="0" x="0" id="text-entity-Song-d80e2154-507c-53bb-a634-0c930e739395-attr-3-key" class="er entityLabel"></text><rect height="23" width="41.733333587646484" y="70" x="96.29999923706055" class="er attributeBoxOdd"></rect><text transform="translate(101.29999923706055,81.5)" style="dominant-baseline: middle; font-size: 10.2px;" y="0" x="0" id="text-entity-Song-d80e2154-507c-53bb-a634-0c930e739395-attr-3-comment" class="er entityLabel">in secs</text></g><g transform="translate(323.9583377838135,31.5 )" id="entity-Artist-57a72993-74d6-5d47-9b6a-c32ca1bc9c44"><rect height="70" width="100" y="0" x="0" class="er entityBox"></rect><text transform="translate(50,12)" style="dominant-baseline: middle; text-anchor: middle; font-size: 12px;" y="0" x="0" id="text-entity-Artist-57a72993-74d6-5d47-9b6a-c32ca1bc9c44" class="er entityLabel">Artist</text><rect height="23" width="36.9222215016683" y="24" x="0" class="er attributeBoxOdd"></rect><text transform="translate(5,35.5)" style="dominant-baseline: middle; font-size: 10.2px;" y="0" x="0" id="text-entity-Artist-57a72993-74d6-5d47-9b6a-c32ca1bc9c44-attr-1-type" class="er entityLabel">int</text><rect height="23" width="37.48888905843099" y="24" x="36.9222215016683" class="er attributeBoxOdd"></rect><text transform="translate(41.9222215016683,35.5)" style="dominant-baseline: middle; font-size: 10.2px;" y="0" x="0" id="text-entity-Artist-57a72993-74d6-5d47-9b6a-c32ca1bc9c44-attr-1-name" class="er entityLabel">id</text><rect height="23" width="25.588889439900715" y="24" x="74.41111056009929" class="er attributeBoxOdd"></rect><text transform="translate(79.41111056009929,35.5)" style="dominant-baseline: middle; font-size: 10.2px;" y="0" x="0" id="text-entity-Artist-57a72993-74d6-5d47-9b6a-c32ca1bc9c44-attr-1-key" class="er entityLabel">PK</text><rect height="23" width="36.9222215016683" y="47" x="0" class="er attributeBoxEven"></rect><text transform="translate(5,58.5)" style="dominant-baseline: middle; font-size: 10.2px;" y="0" x="0" id="text-entity-Artist-57a72993-74d6-5d47-9b6a-c32ca1bc9c44-attr-2-type" class="er entityLabel">string</text><rect height="23" width="37.48888905843099" y="47" x="36.9222215016683" class="er attributeBoxEven"></rect><text transform="translate(41.9222215016683,58.5)" style="dominant-baseline: middle; font-size: 10.2px;" y="0" x="0" id="text-entity-Artist-57a72993-74d6-5d47-9b6a-c32ca1bc9c44-attr-2-name" class="er entityLabel">name</text><rect height="23" width="25.588889439900715" y="47" x="74.41111056009929" class="er attributeBoxEven"></rect><text transform="translate(79.41111056009929,58.5)" style="dominant-baseline: middle; font-size: 10.2px;" y="0" x="0" id="text-entity-Artist-57a72993-74d6-5d47-9b6a-c32ca1bc9c44-attr-2-key" class="er entityLabel"></text></g><g transform="translate(523.9583377838135,20 )" id="entity-CD-da0e5be1-a364-5b0c-8dc2-40a77b6bb49e"><rect height="93" width="138.03333282470703" y="0" x="0" class="er entityBox"></rect><text transform="translate(69.01666641235352,12)" style="dominant-baseline: middle; text-anchor: middle; font-size: 12px;" y="0" x="0" id="text-entity-CD-da0e5be1-a364-5b0c-8dc2-40a77b6bb49e" class="er entityLabel">CD</text><rect height="23" width="34.933332443237305" y="24" x="0" class="er attributeBoxOdd"></rect><text transform="translate(5,35.5)" style="dominant-baseline: middle; font-size: 10.2px;" y="0" x="0" id="text-entity-CD-da0e5be1-a364-5b0c-8dc2-40a77b6bb49e-attr-1-type" class="er entityLabel">int</text><rect height="23" width="37.766666412353516" y="24" x="34.933332443237305" class="er attributeBoxOdd"></rect><text transform="translate(39.933332443237305,35.5)" style="dominant-baseline: middle; font-size: 10.2px;" y="0" x="0" id="text-entity-CD-da0e5be1-a364-5b0c-8dc2-40a77b6bb49e-attr-1-name" class="er entityLabel">id</text><rect height="23" width="23.600000381469727" y="24" x="72.69999885559082" class="er attributeBoxOdd"></rect><text transform="translate(77.69999885559082,35.5)" style="dominant-baseline: middle; font-size: 10.2px;" y="0" x="0" id="text-entity-CD-da0e5be1-a364-5b0c-8dc2-40a77b6bb49e-attr-1-key" class="er entityLabel">PK</text><rect height="23" width="41.733333587646484" y="24" x="96.29999923706055" class="er attributeBoxOdd"></rect><text transform="translate(101.29999923706055,35.5)" style="dominant-baseline: middle; font-size: 10.2px;" y="0" x="0" id="text-entity-CD-da0e5be1-a364-5b0c-8dc2-40a77b6bb49e-attr-1-comment" class="er entityLabel"></text><rect height="23" width="34.933332443237305" y="47" x="0" class="er attributeBoxEven"></rect><text transform="translate(5,58.5)" style="dominant-baseline: middle; font-size: 10.2px;" y="0" x="0" id="text-entity-CD-da0e5be1-a364-5b0c-8dc2-40a77b6bb49e-attr-2-type" class="er entityLabel">string</text><rect height="23" width="37.766666412353516" y="47" x="34.933332443237305" class="er attributeBoxEven"></rect><text transform="translate(39.933332443237305,58.5)" style="dominant-baseline: middle; font-size: 10.2px;" y="0" x="0" id="text-entity-CD-da0e5be1-a364-5b0c-8dc2-40a77b6bb49e-attr-2-name" class="er entityLabel">name</text><rect height="23" width="23.600000381469727" y="47" x="72.69999885559082" class="er attributeBoxEven"></rect><text transform="translate(77.69999885559082,58.5)" style="dominant-baseline: middle; font-size: 10.2px;" y="0" x="0" id="text-entity-CD-da0e5be1-a364-5b0c-8dc2-40a77b6bb49e-attr-2-key" class="er entityLabel"></text><rect height="23" width="41.733333587646484" y="47" x="96.29999923706055" class="er attributeBoxEven"></rect><text transform="translate(101.29999923706055,58.5)" style="dominant-baseline: middle; font-size: 10.2px;" y="0" x="0" id="text-entity-CD-da0e5be1-a364-5b0c-8dc2-40a77b6bb49e-attr-2-comment" class="er entityLabel"></text><rect height="23" width="34.933332443237305" y="70" x="0" class="er attributeBoxOdd"></rect><text transform="translate(5,81.5)" style="dominant-baseline: middle; font-size: 10.2px;" y="0" x="0" id="text-entity-CD-da0e5be1-a364-5b0c-8dc2-40a77b6bb49e-attr-3-type" class="er entityLabel">int</text><rect height="23" width="37.766666412353516" y="70" x="34.933332443237305" class="er attributeBoxOdd"></rect><text transform="translate(39.933332443237305,81.5)" style="dominant-baseline: middle; font-size: 10.2px;" y="0" x="0" id="text-entity-CD-da0e5be1-a364-5b0c-8dc2-40a77b6bb49e-attr-3-name" class="er entityLabel">length</text><rect height="23" width="23.600000381469727" y="70" x="72.69999885559082" class="er attributeBoxOdd"></rect><text transform="translate(77.69999885559082,81.5)" style="dominant-baseline: middle; font-size: 10.2px;" y="0" x="0" id="text-entity-CD-da0e5be1-a364-5b0c-8dc2-40a77b6bb49e-attr-3-key" class="er entityLabel"></text><rect height="23" width="41.733333587646484" y="70" x="96.29999923706055" class="er attributeBoxOdd"></rect><text transform="translate(101.29999923706055,81.5)" style="dominant-baseline: middle; font-size: 10.2px;" y="0" x="0" id="text-entity-CD-da0e5be1-a364-5b0c-8dc2-40a77b6bb49e-attr-3-comment" class="er entityLabel">in secs</text></g><g transform="translate(770.4583263397217,31.5 )" id="entity-Genre-89a06bcb-f85b-5ab0-902b-dd22348e327e"><rect height="70" width="100" y="0" x="0" class="er entityBox"></rect><text transform="translate(50,12)" style="dominant-baseline: middle; text-anchor: middle; font-size: 12px;" y="0" x="0" id="text-entity-Genre-89a06bcb-f85b-5ab0-902b-dd22348e327e" class="er entityLabel">Genre</text><rect height="23" width="36.73333263397217" y="24" x="0" class="er attributeBoxOdd"></rect><text transform="translate(5,35.5)" style="dominant-baseline: middle; font-size: 10.2px;" y="0" x="0" id="text-entity-Genre-89a06bcb-f85b-5ab0-902b-dd22348e327e-attr-1-type" class="er entityLabel">int</text><rect height="23" width="37.30000019073486" y="24" x="36.73333263397217" class="er attributeBoxOdd"></rect><text transform="translate(41.73333263397217,35.5)" style="dominant-baseline: middle; font-size: 10.2px;" y="0" x="0" id="text-entity-Genre-89a06bcb-f85b-5ab0-902b-dd22348e327e-attr-1-name" class="er entityLabel">id</text><rect height="23" width="25.96666717529297" y="24" x="74.03333282470703" class="er attributeBoxOdd"></rect><text transform="translate(79.03333282470703,35.5)" style="dominant-baseline: middle; font-size: 10.2px;" y="0" x="0" id="text-entity-Genre-89a06bcb-f85b-5ab0-902b-dd22348e327e-attr-1-key" class="er entityLabel">PK</text><rect height="23" width="36.73333263397217" y="47" x="0" class="er attributeBoxEven"></rect><text transform="translate(5,58.5)" style="dominant-baseline: middle; font-size: 10.2px;" y="0" x="0" id="text-entity-Genre-89a06bcb-f85b-5ab0-902b-dd22348e327e-attr-2-type" class="er entityLabel">string</text><rect height="23" width="37.30000019073486" y="47" x="36.73333263397217" class="er attributeBoxEven"></rect><text transform="translate(41.73333263397217,58.5)" style="dominant-baseline: middle; font-size: 10.2px;" y="0" x="0" id="text-entity-Genre-89a06bcb-f85b-5ab0-902b-dd22348e327e-attr-2-name" class="er entityLabel">name</text><rect height="23" width="25.96666717529297" y="47" x="74.03333282470703" class="er attributeBoxEven"></rect><text transform="translate(79.03333282470703,58.5)" style="dominant-baseline: middle; font-size: 10.2px;" y="0" x="0" id="text-entity-Genre-89a06bcb-f85b-5ab0-902b-dd22348e327e-attr-2-key" class="er entityLabel">UK</text></g><g transform="translate(21.45833396911621,213 )" id="entity-SongtoCD-30811485-5939-5c1a-8fc0-b6210d81f1c8"><rect height="116" width="100.83333396911621" y="0" x="0" class="er entityBox"></rect><text transform="translate(50.416666984558105,12)" style="dominant-baseline: middle; text-anchor: middle; font-size: 12px;" y="0" x="0" id="text-entity-SongtoCD-30811485-5939-5c1a-8fc0-b6210d81f1c8" class="er entityLabel">Song-to-CD</text><rect height="23" width="20.766666412353516" y="24" x="0" class="er attributeBoxOdd"></rect><text transform="translate(5,35.5)" style="dominant-baseline: middle; font-size: 10.2px;" y="0" x="0" id="text-entity-SongtoCD-30811485-5939-5c1a-8fc0-b6210d81f1c8-attr-1-type" class="er entityLabel">int</text><rect height="23" width="56.46666717529297" y="24" x="20.766666412353516" class="er attributeBoxOdd"></rect><text transform="translate(25.766666412353516,35.5)" style="dominant-baseline: middle; font-size: 10.2px;" y="0" x="0" id="text-entity-SongtoCD-30811485-5939-5c1a-8fc0-b6210d81f1c8-attr-1-name" class="er entityLabel">id</text><rect height="23" width="23.600000381469727" y="24" x="77.23333358764648" class="er attributeBoxOdd"></rect><text transform="translate(82.23333358764648,35.5)" style="dominant-baseline: middle; font-size: 10.2px;" y="0" x="0" id="text-entity-SongtoCD-30811485-5939-5c1a-8fc0-b6210d81f1c8-attr-1-key" class="er entityLabel">PK</text><rect height="23" width="20.766666412353516" y="47" x="0" class="er attributeBoxEven"></rect><text transform="translate(5,58.5)" style="dominant-baseline: middle; font-size: 10.2px;" y="0" x="0" id="text-entity-SongtoCD-30811485-5939-5c1a-8fc0-b6210d81f1c8-attr-2-type" class="er entityLabel">int</text><rect height="23" width="56.46666717529297" y="47" x="20.766666412353516" class="er attributeBoxEven"></rect><text transform="translate(25.766666412353516,58.5)" style="dominant-baseline: middle; font-size: 10.2px;" y="0" x="0" id="text-entity-SongtoCD-30811485-5939-5c1a-8fc0-b6210d81f1c8-attr-2-name" class="er entityLabel">song_id</text><rect height="23" width="23.600000381469727" y="47" x="77.23333358764648" class="er attributeBoxEven"></rect><text transform="translate(82.23333358764648,58.5)" style="dominant-baseline: middle; font-size: 10.2px;" y="0" x="0" id="text-entity-SongtoCD-30811485-5939-5c1a-8fc0-b6210d81f1c8-attr-2-key" class="er entityLabel">FK</text><rect height="23" width="20.766666412353516" y="70" x="0" class="er attributeBoxOdd"></rect><text transform="translate(5,81.5)" style="dominant-baseline: middle; font-size: 10.2px;" y="0" x="0" id="text-entity-SongtoCD-30811485-5939-5c1a-8fc0-b6210d81f1c8-attr-3-type" class="er entityLabel">int</text><rect height="23" width="56.46666717529297" y="70" x="20.766666412353516" class="er attributeBoxOdd"></rect><text transform="translate(25.766666412353516,81.5)" style="dominant-baseline: middle; font-size: 10.2px;" y="0" x="0" id="text-entity-SongtoCD-30811485-5939-5c1a-8fc0-b6210d81f1c8-attr-3-name" class="er entityLabel">cd_id</text><rect height="23" width="23.600000381469727" y="70" x="77.23333358764648" class="er attributeBoxOdd"></rect><text transform="translate(82.23333358764648,81.5)" style="dominant-baseline: middle; font-size: 10.2px;" y="0" x="0" id="text-entity-SongtoCD-30811485-5939-5c1a-8fc0-b6210d81f1c8-attr-3-key" class="er entityLabel">FK</text><rect height="23" width="20.766666412353516" y="93" x="0" class="er attributeBoxEven"></rect><text transform="translate(5,104.5)" style="dominant-baseline: middle; font-size: 10.2px;" y="0" x="0" id="text-entity-SongtoCD-30811485-5939-5c1a-8fc0-b6210d81f1c8-attr-4-type" class="er entityLabel">int</text><rect height="23" width="56.46666717529297" y="93" x="20.766666412353516" class="er attributeBoxEven"></rect><text transform="translate(25.766666412353516,104.5)" style="dominant-baseline: middle; font-size: 10.2px;" y="0" x="0" id="text-entity-SongtoCD-30811485-5939-5c1a-8fc0-b6210d81f1c8-attr-4-name" class="er entityLabel">sort_order</text><rect height="23" width="23.600000381469727" y="93" x="77.23333358764648" class="er attributeBoxEven"></rect><text transform="translate(82.23333358764648,104.5)" style="dominant-baseline: middle; font-size: 10.2px;" y="0" x="0" id="text-entity-SongtoCD-30811485-5939-5c1a-8fc0-b6210d81f1c8-attr-4-key" class="er entityLabel"></text></g><g transform="translate(280.75833320617676,224.5 )" id="entity-SongtoArtist-387f92f8-da0b-52a6-85d8-f60a902cd3c6"><rect height="93" width="103.33333587646484" y="0" x="0" class="er entityBox"></rect><text transform="translate(51.66666793823242,12)" style="dominant-baseline: middle; text-anchor: middle; font-size: 12px;" y="0" x="0" id="text-entity-SongtoArtist-387f92f8-da0b-52a6-85d8-f60a902cd3c6" class="er entityLabel">Song-to-Artist</text><rect height="23" width="25.188889185587566" y="24" x="0" class="er attributeBoxOdd"></rect><text transform="translate(5,35.5)" style="dominant-baseline: middle; font-size: 10.2px;" y="0" x="0" id="text-entity-SongtoArtist-387f92f8-da0b-52a6-85d8-f60a902cd3c6-attr-1-type" class="er entityLabel">int</text><rect height="23" width="50.1222235361735" y="24" x="25.188889185587566" class="er attributeBoxOdd"></rect><text transform="translate(30.188889185587566,35.5)" style="dominant-baseline: middle; font-size: 10.2px;" y="0" x="0" id="text-entity-SongtoArtist-387f92f8-da0b-52a6-85d8-f60a902cd3c6-attr-1-name" class="er entityLabel">id</text><rect height="23" width="28.022223154703777" y="24" x="75.31111272176106" class="er attributeBoxOdd"></rect><text transform="translate(80.31111272176106,35.5)" style="dominant-baseline: middle; font-size: 10.2px;" y="0" x="0" id="text-entity-SongtoArtist-387f92f8-da0b-52a6-85d8-f60a902cd3c6-attr-1-key" class="er entityLabel">PK</text><rect height="23" width="25.188889185587566" y="47" x="0" class="er attributeBoxEven"></rect><text transform="translate(5,58.5)" style="dominant-baseline: middle; font-size: 10.2px;" y="0" x="0" id="text-entity-SongtoArtist-387f92f8-da0b-52a6-85d8-f60a902cd3c6-attr-2-type" class="er entityLabel">int</text><rect height="23" width="50.1222235361735" y="47" x="25.188889185587566" class="er attributeBoxEven"></rect><text transform="translate(30.188889185587566,58.5)" style="dominant-baseline: middle; font-size: 10.2px;" y="0" x="0" id="text-entity-SongtoArtist-387f92f8-da0b-52a6-85d8-f60a902cd3c6-attr-2-name" class="er entityLabel">song_id</text><rect height="23" width="28.022223154703777" y="47" x="75.31111272176106" class="er attributeBoxEven"></rect><text transform="translate(80.31111272176106,58.5)" style="dominant-baseline: middle; font-size: 10.2px;" y="0" x="0" id="text-entity-SongtoArtist-387f92f8-da0b-52a6-85d8-f60a902cd3c6-attr-2-key" class="er entityLabel">FK</text><rect height="23" width="25.188889185587566" y="70" x="0" class="er attributeBoxOdd"></rect><text transform="translate(5,81.5)" style="dominant-baseline: middle; font-size: 10.2px;" y="0" x="0" id="text-entity-SongtoArtist-387f92f8-da0b-52a6-85d8-f60a902cd3c6-attr-3-type" class="er entityLabel">int</text><rect height="23" width="50.1222235361735" y="70" x="25.188889185587566" class="er attributeBoxOdd"></rect><text transform="translate(30.188889185587566,81.5)" style="dominant-baseline: middle; font-size: 10.2px;" y="0" x="0" id="text-entity-SongtoArtist-387f92f8-da0b-52a6-85d8-f60a902cd3c6-attr-3-name" class="er entityLabel">artist_id</text><rect height="23" width="28.022223154703777" y="70" x="75.31111272176106" class="er attributeBoxOdd"></rect><text transform="translate(80.31111272176106,81.5)" style="dominant-baseline: middle; font-size: 10.2px;" y="0" x="0" id="text-entity-SongtoArtist-387f92f8-da0b-52a6-85d8-f60a902cd3c6-attr-3-key" class="er entityLabel">FK</text></g><g transform="translate(720.4583263397217,224.5 )" id="entity-GenretoCD-24d61e17-fd45-5713-812f-1ff78dcb2fa1"><rect height="93" width="100" y="0" x="0" class="er entityBox"></rect><text transform="translate(50,12)" style="dominant-baseline: middle; text-anchor: middle; font-size: 12px;" y="0" x="0" id="text-entity-GenretoCD-24d61e17-fd45-5713-812f-1ff78dcb2fa1" class="er entityLabel">Genre-to-CD</text><rect height="23" width="22.75555483500163" y="24" x="0" class="er attributeBoxOdd"></rect><text transform="translate(5,35.5)" style="dominant-baseline: middle; font-size: 10.2px;" y="0" x="0" id="text-entity-GenretoCD-24d61e17-fd45-5713-812f-1ff78dcb2fa1-attr-1-type" class="er entityLabel">int</text><rect height="23" width="51.65555636088053" y="24" x="22.75555483500163" class="er attributeBoxOdd"></rect><text transform="translate(27.75555483500163,35.5)" style="dominant-baseline: middle; font-size: 10.2px;" y="0" x="0" id="text-entity-GenretoCD-24d61e17-fd45-5713-812f-1ff78dcb2fa1-attr-1-name" class="er entityLabel">id</text><rect height="23" width="25.58888880411784" y="24" x="74.41111119588216" class="er attributeBoxOdd"></rect><text transform="translate(79.41111119588216,35.5)" style="dominant-baseline: middle; font-size: 10.2px;" y="0" x="0" id="text-entity-GenretoCD-24d61e17-fd45-5713-812f-1ff78dcb2fa1-attr-1-key" class="er entityLabel">PK</text><rect height="23" width="22.75555483500163" y="47" x="0" class="er attributeBoxEven"></rect><text transform="translate(5,58.5)" style="dominant-baseline: middle; font-size: 10.2px;" y="0" x="0" id="text-entity-GenretoCD-24d61e17-fd45-5713-812f-1ff78dcb2fa1-attr-2-type" class="er entityLabel">int</text><rect height="23" width="51.65555636088053" y="47" x="22.75555483500163" class="er attributeBoxEven"></rect><text transform="translate(27.75555483500163,58.5)" style="dominant-baseline: middle; font-size: 10.2px;" y="0" x="0" id="text-entity-GenretoCD-24d61e17-fd45-5713-812f-1ff78dcb2fa1-attr-2-name" class="er entityLabel">cd_id</text><rect height="23" width="25.58888880411784" y="47" x="74.41111119588216" class="er attributeBoxEven"></rect><text transform="translate(79.41111119588216,58.5)" style="dominant-baseline: middle; font-size: 10.2px;" y="0" x="0" id="text-entity-GenretoCD-24d61e17-fd45-5713-812f-1ff78dcb2fa1-attr-2-key" class="er entityLabel">FK</text><rect height="23" width="22.75555483500163" y="70" x="0" class="er attributeBoxOdd"></rect><text transform="translate(5,81.5)" style="dominant-baseline: middle; font-size: 10.2px;" y="0" x="0" id="text-entity-GenretoCD-24d61e17-fd45-5713-812f-1ff78dcb2fa1-attr-3-type" class="er entityLabel">int</text><rect height="23" width="51.65555636088053" y="70" x="22.75555483500163" class="er attributeBoxOdd"></rect><text transform="translate(27.75555483500163,81.5)" style="dominant-baseline: middle; font-size: 10.2px;" y="0" x="0" id="text-entity-GenretoCD-24d61e17-fd45-5713-812f-1ff78dcb2fa1-attr-3-name" class="er entityLabel">genre_id</text><rect height="23" width="25.58888880411784" y="70" x="74.41111119588216" class="er attributeBoxOdd"></rect><text transform="translate(79.41111119588216,81.5)" style="dominant-baseline: middle; font-size: 10.2px;" y="0" x="0" id="text-entity-GenretoCD-24d61e17-fd45-5713-812f-1ff78dcb2fa1-attr-3-key" class="er entityLabel">FK</text></g><rect height="14" width="9.333333015441895" y="155.73980712890625" x="68.71162176132202" class="er relationshipLabelBox"></rect><text style="text-anchor: middle; dominant-baseline: middle; font-size: 12px;" y="162.73980712890625" x="73.37828826904297" id="rel1" class="er relationshipLabel">in</text><rect height="14" width="44.66666793823242" y="197.95309448242188" x="331.23435401916504" class="er relationshipLabelBox"></rect><text style="text-anchor: middle; dominant-baseline: middle; font-size: 12px;" y="204.95309448242188" x="353.56768798828125" id="rel2" class="er relationshipLabel">contains</text><rect height="14" width="55.33333206176758" y="158.36228942871094" x="194.60574913024902" class="er relationshipLabelBox"></rect><text style="text-anchor: middle; dominant-baseline: middle; font-size: 12px;" y="165.36228942871094" x="222.2724151611328" id="rel3" class="er relationshipLabel">belongs to</text><rect height="14" width="29.33333396911621" y="157.44349670410156" x="355.06633472442627" class="er relationshipLabelBox"></rect><text style="text-anchor: middle; dominant-baseline: middle; font-size: 12px;" y="164.44349670410156" x="369.7330017089844" id="rel4" class="er relationshipLabel">wrote</text><rect height="14" width="19.33333396911621" y="158.04736328125" x="805.5568437576294" class="er relationshipLabelBox"></rect><text style="text-anchor: middle; dominant-baseline: middle; font-size: 12px;" y="165.04736328125" x="815.2235107421875" id="rel5" class="er relationshipLabel">has</text><rect height="14" width="19.33333396911621" y="164.49803161621094" x="661.6758623123169" class="er relationshipLabelBox"></rect><text style="text-anchor: middle; dominant-baseline: middle; font-size: 12px;" y="171.49803161621094" x="671.342529296875" id="rel6" class="er relationshipLabel">has</text></svg>